# xmcd
#
# Track frame offsets:
#	150
#	13537
#	25499
#	36130
#	49498
#	62360
#	75185
#	88047
#	99222
#	111615
#	125152
#	136833
#	149699
#	162392
#	173192
#	185023
#	197079
#	208422
#
# Disc length: 2941 seconds
#
# Revision: 0
# Processed by: cddbd v1.5.2PL0 Copyright (c) Steve Scherf et al.
# Submitted via: audiograbber 1.83.01
#
DISCID=070b7b12
DTITLE=Robert Johnson - Golden Blues Box CD6 - Robert Johnson - Standing In The
DTITLE=Crossroad
DYEAR=2014
DGENRE=Blues
TTITLE0=Sweet Home Chicago
TTITLE1=Crossroad Blues
TTITLE2=Love In Vain
TTITLE3=Dust My Broom
TTITLE4=Ramblin´ On My Mind
TTITLE5=Preachin´ Blues (Up Jumped The Devil)
TTITLE6=Kind Hearted Woman Blues
TTITLE7=Walking Blues
TTITLE8=Traveling Riverside Blues
TTITLE9=Terraplane Blues
TTITLE10=Hellhound On My Trail
TTITLE11=Come On My Kitchen
TTITLE12=32-20 Blues
TTITLE13=From Four Until Late
TTITLE14=When You Got A Good Friend
TTITLE15=Phonograph Blues
TTITLE16=Dead Shrimp Blues
TTITLE17=Last Fair Deal Gone Down
EXTD=
EXTT0=
EXTT1=
EXTT2=
EXTT3=
EXTT4=
EXTT5=
EXTT6=
EXTT7=
EXTT8=
EXTT9=
EXTT10=
EXTT11=
EXTT12=
EXTT13=
EXTT14=
EXTT15=
EXTT16=
EXTT17=
PLAYORDER=
